<?xml version="1.0" encoding="UTF-8" standalone="no"?>
<!DOCTYPE svg PUBLIC "-//W3C//DTD SVG 1.1//EN" "http://www.w3.org/Graphics/SVG/1.1/DTD/svg11.dtd">
<svg width="100%" height="100%" viewBox="0 0 32 32" version="1.1" xmlns="http://www.w3.org/2000/svg" xmlns:xlink="http://www.w3.org/1999/xlink" xml:space="preserve" xmlns:serif="http://www.serif.com/" style="fill-rule:evenodd;clip-rule:evenodd;stroke-linejoin:round;stroke-miterlimit:2;">
    <g transform="matrix(1.039419,0,0,0.96,3.007259,4)">
        <path d="M25,4.167L25,20.833C25,23.133 23.276,25 21.152,25L3.848,25C1.724,25 0,23.133 0,20.833L0,4.167C0,1.867 1.724,0 3.848,0L21.152,0C23.276,0 25,1.867 25,4.167Z" style="fill:white;"/>
    </g>
    <g transform="matrix(1,0,0,1,4.000012,4)">
        <path d="M24,18.588C23.281,18.86 22.462,18.549 22.105,17.868L18.655,13.097L18.155,12.43L14.152,17.874C13.816,18.526 13.04,18.831 12.35,18.582L17.508,11.662L12.71,5.411C13.418,5.156 14.216,5.435 14.61,6.077L18.186,10.907L21.782,6.097C22.12,5.456 22.894,5.167 23.57,5.429L21.708,7.9L19.186,11.183C19.044,11.309 18.963,11.49 18.963,11.68C18.963,11.87 19.044,12.051 19.186,12.177L23.99,18.589L24,18.588ZM0.002,11.576L0.422,9.501C1.576,5.398 6.28,3.691 9.516,6.231C11.411,7.72 11.884,9.828 11.791,12.204L1.116,12.204C0.943,16.447 4.005,19.009 7.92,17.7C9.208,17.236 10.179,16.154 10.502,14.824C10.709,14.158 11.05,14.044 11.676,14.236C11.465,15.881 10.51,17.341 9.087,18.193C6.713,19.492 3.753,19.114 1.781,17.26C0.828,16.188 0.252,14.832 0.141,13.402C0.141,13.167 0.061,12.947 0.007,12.736C0.002,12.35 -0,11.963 0,11.577L0.002,11.576ZM1.129,11.29L10.783,11.29C10.723,8.214 8.782,6.032 6.193,6.012C3.311,5.972 1.249,8.106 1.122,11.276L1.129,11.29Z" style="fill-rule:nonzero;"/>
    </g>
</svg>
