<?xml version="1.0" encoding="UTF-8" standalone="no"?>
<!DOCTYPE svg PUBLIC "-//W3C//DTD SVG 1.1//EN" "http://www.w3.org/Graphics/SVG/1.1/DTD/svg11.dtd">
<svg width="100%" height="100%" fill="#000000" viewBox="0 0 32 32" version="1.1" xmlns="http://www.w3.org/2000/svg" xmlns:xlink="http://www.w3.org/1999/xlink" xml:space="preserve" xmlns:serif="http://www.serif.com/" style="fill-rule:evenodd;clip-rule:evenodd;stroke-linejoin:round;stroke-miterlimit:2;">
    <g transform="matrix(1.039419,0,0,0.96,3.007259,4)">
        <path d="M25,4.167L25,20.833C25,23.133 23.276,25 21.152,25L3.848,25C1.724,25 0,23.133 0,20.833L0,4.167C0,1.867 1.724,0 3.848,0L21.152,0C23.276,0 25,1.867 25,4.167Z" style="fill:white;"/>
    </g>
    <g transform="matrix(1,0,0,1,4.000012,4)">
        <path d="M14.679 0c4.648 0 7.413 2.765 7.413 6.434s-2.765 6.434-7.413 6.434H12.33L24 24h-8.245l-8.88-8.44c-.636-.588-.93-1.273-.93-1.86 0-.831.587-1.565 1.713-1.883l4.574-1.224c1.737-.465 2.936-1.81 2.936-3.572 0-2.153-1.761-3.4-3.939-3.4H0V0z"/>
    </g>
</svg>